<svg height="100%" width="100%" id="svg" viewBox="0 0 1440 600" xmlns="http://www.w3.org/2000/svg" class="transition duration-300 ease-in-out delay-150"><defs><linearGradient id="gradient"><stop offset="5%" stop-color="#002bdc88"></stop><stop offset="95%" stop-color="#32ded488"></stop></linearGradient></defs><path d="M 0,600 C 0,600 0,200 0,200 C 105.12918660287082,162.8803827751196 210.25837320574163,125.76076555023923 318,142 C 425.74162679425837,158.23923444976077 536.0956937799043,227.83732057416267 628,232 C 719.9043062200957,236.16267942583733 793.3588516746412,174.88995215311007 873,149 C 952.6411483253588,123.11004784688994 1038.468899521531,132.60287081339715 1134,147 C 1229.531100478469,161.39712918660285 1334.7655502392345,180.69856459330143 1440,200 C 1440,200 1440,600 1440,600 Z" stroke="none" stroke-width="0" fill="url(#gradient)" class="transition-all duration-300 ease-in-out delay-150"></path><defs><linearGradient id="gradient"><stop offset="5%" stop-color="#002bdcff"></stop><stop offset="95%" stop-color="#32ded4ff"></stop></linearGradient></defs><path d="M 0,600 C 0,600 0,400 0,400 C 75.81818181818184,413.1961722488038 151.63636363636368,426.39234449760767 258,436 C 364.3636363636363,445.60765550239233 501.27272727272714,451.62679425837314 598,452 C 694.7272727272729,452.37320574162686 751.2727272727274,447.10047846889955 834,441 C 916.7272727272726,434.89952153110045 1025.6363636363635,427.9712918660287 1131,421 C 1236.3636363636365,414.0287081339713 1338.1818181818182,407.0143540669857 1440,400 C 1440,400 1440,600 1440,600 Z" stroke="none" stroke-width="0" fill="url(#gradient)" class="transition-all duration-300 ease-in-out delay-150"></path></svg>